<svg
      xmlns="http://www.w3.org/2000/svg"
      width="32px"
      height="32px"
      viewBox="0 0 382.000000 540.000000"
    >
      <g fill="#7cc0ff">
        <path
          d="M1817 5050c-366-46-672-194-922-444-418-418-554-1010-364-1584 61-183 154-341 314-532 158-188 208-270 358-591 76-162 197-273 367-333l85-31 290-3c335-4 391 3 521 68 147 72 254 191 300 333 23 70 27 100 27 202 0 135-15 223-69 385-70 212-250 527-324 569-41 23-98 27-133 10-12-5-59-49-104-97l-81-86-33 34c-17 19-53 81-80 136-53 114-93 163-183 228-128 92-229 224-272 360-28 87-44 288-26 315 22 31 208 41 327 16 39-8 112-35 164-61 82-40 108-60 202-155 113-113 154-140 269-178 78-26 170-77 170-94 0-7-21-33-46-57-72-71-104-126-104-179 0-61 23-97 107-166 222-184 498-190 726-17 47 36 125 129 151 182 50 97 68 232 55 390-39 457-283 865-673 1125-183 122-382 202-596 240-105 19-332 27-423 15zm522-482c24-69 41-86 106-113 33-13 60-29 60-36s-24-20-54-31c-71-23-84-37-110-109-12-32-26-59-31-59-4 0-16 21-26 48-29 77-49 99-111 119-31 11-59 25-61 31-2 7 14 19 35 27 90 36 102 46 123 103 12 31 24 60 26 64 11 18 28 1 43-44zm-1061-210c21-48 34-61 76-75 44-14 42-30-3-44-42-12-65-38-77-83-10-42-22-40-46 11-18 37-33 52-65 68-24 11-43 23-43 27s20 16 45 27c37 16 49 29 65 66 11 25 21 45 24 45s14-19 24-42zm-174-1035c21-61 38-79 97-98 27-9 49-20 49-25s-22-16-50-25c-54-18-85-49-95-95-3-16-13-34-21-41-11-9-17-5-29 24-8 20-15 41-15 46 0 16-58 59-89 66-16 3-35 12-41 20-8 10-1 16 37 29 45 16 93 50 93 68s29 78 39 78c5 0 16-21 25-47z"
          transform="matrix(.1 0 0 -.1 0 540)"
        />
        <path
          d="M1855 3741c-35-16-67-58-72-98-14-109 108-175 191-103 79 70 41 191-65 205-19 3-43 1-54-4zM1340 1256c0-78 44-150 118-193l47-28 440-3c478-4 516-1 583 48 47 34 92 118 92 172v38H1340v-34zM1918 842c-330-2-418-5-418-15 0-39 31-120 58-155 18-22 54-51 80-64 46-23 53-23 342-23 270 0 298 2 333 19 78 39 136 123 137 198v36l-57 4c-32 1-246 2-475 0z"
          transform="matrix(.1 0 0 -.1 0 540)"
        />
      </g>
    </svg>