<?xml version="1.0" standalone="no"?>
<!DOCTYPE svg PUBLIC "-//W3C//DTD SVG 20010904//EN"
 "http://www.w3.org/TR/2001/REC-SVG-20010904/DTD/svg10.dtd">
<svg version="1.0" xmlns="http://www.w3.org/2000/svg"
 width="1280.000000pt" height="575.000000pt" viewBox="0 0 1280.000000 575.000000"
 preserveAspectRatio="xMidYMid meet">

<g transform="translate(0.000000,575.000000) scale(0.100000,-0.100000)"
fill="#7cc0ff" stroke="none">
<path d="M2215 4724 c-74 -8 -238 -45 -309 -71 -188 -68 -360 -176 -502 -318
-116 -116 -177 -199 -251 -345 -160 -312 -189 -693 -78 -1025 60 -183 150
-332 330 -550 84 -101 162 -231 227 -377 28 -62 66 -137 85 -165 68 -102 174
-178 309 -220 51 -15 95 -18 319 -18 189 0 275 4 315 14 212 53 371 220 401
421 34 226 -65 547 -256 836 -64 95 -100 120 -166 111 -39 -5 -52 -14 -116
-81 -39 -42 -76 -76 -81 -76 -20 0 -64 65 -108 156 -45 95 -60 112 -194 217
-74 58 -153 165 -185 251 -31 82 -52 224 -41 278 9 48 26 53 176 52 92 0 128
-5 180 -23 97 -34 170 -83 257 -172 95 -98 127 -120 229 -154 83 -28 154 -68
154 -86 0 -6 -24 -39 -54 -72 -64 -74 -76 -96 -76 -137 0 -45 23 -82 82 -134
207 -181 485 -179 682 4 110 103 151 211 149 390 -1 143 -18 254 -58 375 -52
159 -108 263 -221 410 -186 242 -494 430 -806 490 -82 16 -314 27 -393 19z
m496 -500 c8 -6 35 -18 62 -28 26 -10 47 -21 47 -26 0 -5 -22 -16 -49 -25 -57
-19 -85 -46 -103 -99 -7 -22 -18 -41 -24 -43 -6 -2 -22 23 -36 56 -24 55 -29
60 -79 79 -30 11 -54 26 -54 33 0 7 19 20 42 29 54 20 80 44 94 89 22 68 31
69 60 5 14 -33 32 -64 40 -70z m-974 -111 c12 -25 31 -44 56 -56 20 -10 37
-22 37 -27 0 -5 -16 -14 -36 -20 -28 -10 -40 -21 -54 -56 -11 -24 -22 -44 -25
-44 -3 0 -14 20 -25 44 -14 35 -26 46 -54 56 -46 15 -45 26 3 46 29 12 42 24
54 55 8 21 18 39 21 39 3 0 14 -17 23 -37z m-153 -907 c20 -52 38 -69 89 -86
20 -6 37 -15 37 -19 0 -5 -23 -18 -51 -29 -44 -19 -53 -28 -72 -72 -11 -27
-24 -50 -28 -50 -3 0 -16 23 -27 50 -19 45 -27 53 -72 72 -27 11 -50 24 -50
29 0 4 18 14 40 20 47 14 73 41 90 92 6 20 15 37 19 37 5 0 16 -20 25 -44z"/>
<path d="M2234 3564 c-93 -46 -57 -193 47 -194 74 0 124 75 95 143 -14 36 -59
67 -93 67 -10 0 -32 -7 -49 -16z"/>
<path d="M4995 3173 c-73 -17 -98 -26 -116 -44 -18 -18 -19 -35 -19 -359 0
-222 4 -347 11 -363 23 -52 125 -81 284 -81 222 0 352 69 426 226 33 71 34 76
34 203 0 125 -1 132 -32 197 -54 115 -150 189 -281 217 -51 11 -265 14 -307 4z
m280 -206 c75 -43 110 -125 103 -242 -5 -72 -29 -135 -65 -167 -27 -25 -99
-48 -148 -48 -80 0 -75 -15 -75 246 l0 234 73 0 c56 0 81 -5 112 -23z"/>
<path d="M7806 3163 c-155 -47 -230 -201 -163 -333 30 -62 87 -101 214 -149
156 -60 158 -61 158 -101 0 -30 -5 -38 -35 -53 -50 -26 -145 -16 -227 24 -71
34 -91 30 -118 -21 -24 -46 -19 -85 16 -125 40 -45 77 -61 178 -75 140 -21
295 12 364 78 72 68 94 192 49 278 -41 79 -104 120 -265 174 -79 26 -101 37
-110 57 -10 22 -8 28 16 49 24 20 39 24 98 24 44 0 92 -8 132 -21 l62 -21 22
27 c17 19 23 39 23 71 0 58 -35 96 -110 118 -69 21 -237 20 -304 -1z"/>
<path d="M8615 3166 c-73 -18 -93 -32 -100 -69 -3 -17 -5 -184 -3 -370 l3
-339 28 -24 c24 -21 38 -24 106 -24 46 0 82 5 89 12 8 8 12 51 12 129 l0 116
103 5 c152 8 231 45 284 136 26 43 28 56 28 147 0 92 -2 104 -28 148 -61 103
-169 148 -356 146 -64 0 -138 -6 -166 -13z m225 -176 c16 0 42 -11 59 -26 27
-22 31 -32 31 -75 0 -63 -28 -94 -92 -104 -92 -14 -93 -13 -96 98 -3 93 -2 98
20 107 13 5 29 7 36 4 8 -2 26 -4 42 -4z"/>
<path d="M10530 3172 c-19 -2 -56 -10 -82 -18 l-46 -15 -45 -122 c-66 -182
-163 -484 -178 -554 -11 -54 -11 -64 4 -87 26 -39 116 -57 187 -37 21 6 28 18
46 86 l21 80 124 3 125 3 13 -53 c19 -75 40 -106 79 -119 56 -19 182 5 182 35
0 23 -173 624 -202 701 -15 40 -37 65 -68 77 -34 13 -117 24 -160 20z m80
-338 c17 -63 29 -121 27 -129 -4 -9 -26 -13 -77 -13 -39 1 -72 4 -75 8 -4 6
61 224 72 243 12 20 23 -3 53 -109z"/>
<path d="M6073 3154 c-38 -14 -44 -21 -64 -72 -58 -154 -200 -596 -206 -640
-5 -45 -3 -53 19 -75 30 -30 101 -44 161 -31 l42 9 21 80 21 80 123 0 124 0
16 -55 c24 -80 36 -97 76 -110 59 -20 184 4 184 35 0 17 -133 484 -175 616
-21 63 -42 120 -49 128 -6 8 -29 22 -51 32 -50 23 -181 24 -242 3z m166 -323
c18 -63 30 -120 27 -126 -5 -14 -142 -20 -150 -7 -9 14 74 266 84 256 4 -5 22
-60 39 -123z"/>
<path d="M9411 3156 c-9 -10 -11 -112 -9 -380 l3 -366 33 -32 32 -33 223 -3
c215 -3 224 -2 250 18 23 18 27 29 27 70 0 27 -4 60 -10 74 l-10 26 -155 0
-155 0 0 286 c0 290 -3 313 -39 341 -23 18 -175 17 -190 -1z"/>
<path d="M11240 3154 c-19 -8 -38 -20 -42 -27 -13 -20 -10 -699 3 -736 14 -41
41 -51 129 -51 61 0 71 3 81 22 9 16 10 85 6 257 -3 128 -2 230 3 225 4 -5 20
-38 35 -74 51 -121 183 -375 207 -397 32 -31 112 -45 183 -33 32 5 63 15 71
21 12 9 14 78 14 386 l0 374 -25 25 c-23 23 -31 25 -107 22 l-83 -3 -5 -255
c-5 -234 -6 -252 -19 -220 -31 76 -202 414 -218 433 -42 46 -161 62 -233 31z"/>
<path d="M4060 3140 c-15 -15 -20 -33 -20 -71 0 -90 -2 -89 180 -89 106 0 160
-4 160 -11 0 -5 -52 -118 -116 -249 -97 -201 -116 -247 -116 -286 0 -65 21
-83 111 -97 60 -9 74 -8 85 4 7 8 76 156 152 329 133 301 139 318 139 381 0
113 10 109 -297 109 -245 0 -259 -1 -278 -20z"/>
<path d="M6719 3132 c-30 -27 -31 -30 -20 -64 13 -40 153 -282 215 -373 l41
-60 5 -127 c6 -159 8 -161 120 -167 54 -2 85 1 95 9 12 10 15 40 15 143 l0
130 81 135 c133 221 170 316 141 358 -20 28 -59 44 -112 44 -82 0 -100 -14
-131 -96 -57 -149 -91 -224 -100 -218 -5 3 -40 67 -78 142 -80 157 -96 172
-185 172 -47 0 -61 -4 -87 -28z"/>
<path d="M1793 1374 c7 -62 50 -123 108 -152 45 -22 50 -22 451 -23 447 0 445
-1 505 62 32 33 63 103 63 140 0 18 -19 19 -566 19 l-567 0 6 -46z"/>
<path d="M1942 980 c6 -62 43 -118 101 -151 42 -24 45 -24 307 -24 255 0 267
1 307 22 50 27 87 73 102 128 22 82 62 75 -405 75 l-417 0 5 -50z"/>
</g>
</svg>
